<svg xmlns="http://www.w3.org/2000/svg" viewBox="0 0 509.9 329.36"><defs><style>.cls-1{fill:#fff;}.cls-2{fill:#005493;}</style></defs><g id="Layer_2" data-name="Layer 2"><g id="Layer_1-2" data-name="Layer 1"><g id="logo-white"><path class="cls-1" d="M50.77,329.36V223.28H94a19.76,19.76,0,0,1,19.7,19.7v15.91A19.76,19.76,0,0,1,94,278.59H53.8v50.77Zm3-53.8H94a16.72,16.72,0,0,0,16.67-16.67V243A16.72,16.72,0,0,0,94,226.31H53.8Z"/><path class="cls-1" d="M115,329.36,152.9,223.28H157l37.88,106.08h-3l-11.37-31.83H129.41l-11.36,31.83Zm15.46-34.86h48.94l-24.24-68h-.31Z"/><path class="cls-1" d="M211.54,329.36V223.28H251.7A19.76,19.76,0,0,1,271.4,243v66.68a19.76,19.76,0,0,1-19.7,19.7Zm3-3H251.7a16.72,16.72,0,0,0,16.67-16.67V243a16.72,16.72,0,0,0-16.67-16.67H214.57Z"/><path class="cls-1" d="M293.52,329.36V223.28h40.15A19.77,19.77,0,0,1,353.38,243v66.68a19.77,19.77,0,0,1-19.71,19.7Zm3-3h37.12a16.73,16.73,0,0,0,16.68-16.67V243a16.72,16.72,0,0,0-16.68-16.67H296.55Z"/><path class="cls-1" d="M375.49,329.36V223.28h3v103h56.07v3Z"/><path class="cls-1" d="M451.41,329.36V223.28h55.76v3H454.44v47h44.25v3H454.44v50h52.73v3Z"/><path class="cls-1" d="M49.06,197.63V57.91h62.67c20.76,0,33.93,15.17,33.93,35.93v15.57c0,20.76-13.17,35.92-33.93,35.92H81v52.3ZM81,117h21.15c7.79,0,12-3.59,12-11.37v-8c0-7.78-4.19-11.38-12-11.38H81Z"/><path class="cls-1" d="M160.63,197.63V57.91h31.93V197.63Z"/><path class="cls-1" d="M204.14,197.63l31.13-69.86L204.14,57.91h32.73L253,96.43h.8L270,57.91h32.74L272,127.77l30.94,69.86H270.2l-16.36-38.52H253l-16.17,38.52Z"/><path class="cls-1" d="M316.3,197.63V57.91h86.23v28H348.24V113.4h44.31v28.94H348.24v27.34h54.29v27.95Z"/><path class="cls-1" d="M422.88,197.63V57.91h31.94V169.68H509.9v27.95Z"/><path class="cls-2" d="M46.05,197.63C27.1,103.9-40.53,4,132.86,27.82c113.3,15.57,309.23,116.81,374.31,195.46h0C441,130.45,249.8,20.64,125.58,3.58-62.85-22.3,5.77,97.25,46.05,197.63Z"/></g></g></g></svg>